<?xml version="1.0" standalone="no"?>
<!DOCTYPE svg PUBLIC "-//W3C//DTD SVG 20010904//EN"
 "http://www.w3.org/TR/2001/REC-SVG-20010904/DTD/svg10.dtd">
<svg version="1.0" xmlns="http://www.w3.org/2000/svg"
width="94" height="28"  viewBox="0 0 249.000000 260.000000"
 preserveAspectRatio="xMidYMid meet">

<g transform="translate(0.000000,260.000000) scale(0.100000,-0.100000)"
fill="#000000" stroke="none">
<path d="M1208 2383 c-44 -4 -48 -6 -48 -30 0 -23 3 -25 31 -19 17 3 62 6 100
6 61 0 69 2 69 19 0 31 -21 34 -152 24z"/>
<path d="M1400 2357 c0 -19 9 -25 60 -38 l60 -16 0 23 c0 22 -18 32 -92 48
-24 6 -28 3 -28 -17z"/>
<path d="M1048 2345 c-81 -28 -171 -75 -218 -115 -33 -27 -34 -30 -18 -46 16
-16 18 -15 47 9 44 37 127 81 199 107 52 19 62 26 62 46 0 13 -1 24 -2 23 -2
0 -33 -11 -70 -24z"/>
<path d="M1560 2316 c0 -20 9 -30 43 -47 23 -12 54 -30 69 -40 35 -25 40 -24
36 9 -2 22 -15 33 -75 65 l-73 38 0 -25z"/>
<path d="M1750 2204 c0 -21 10 -40 35 -64 l35 -34 0 30 c0 21 -10 40 -35 64
l-35 34 0 -30z"/>
<path d="M1250 2195 c-12 -14 -26 -87 -50 -265 -16 -117 -40 -263 -66 -410
-14 -74 -27 -173 -31 -220 -3 -48 -11 -89 -18 -95 -16 -14 -26 -92 -14 -122 6
-18 15 -23 32 -21 20 3 24 13 44 143 12 77 36 221 52 320 17 99 40 245 52 325
11 80 23 152 26 160 4 13 43 -114 118 -390 29 -104 34 -114 61 -108 13 2 26
25 44 76 14 39 27 72 30 72 3 0 13 -14 22 -30 l17 -30 216 0 216 0 -6 -47
c-10 -72 -43 -180 -77 -246 -16 -33 -27 -61 -24 -64 13 -14 -18 -63 -49 -75
-18 -7 -56 -35 -84 -61 -39 -37 -51 -55 -49 -73 3 -24 4 -23 60 21 140 110
257 329 261 490 l2 55 47 0 c38 0 48 -4 53 -20 3 -10 20 -31 36 -45 76 -63
199 -4 199 96 0 36 -31 89 -63 106 -60 31 -154 -1 -173 -59 -4 -14 -15 -18
-50 -18 l-44 0 0 38 c0 43 -31 170 -54 222 l-15 35 -1 -65 c0 -36 4 -81 9
-100 5 -19 12 -56 16 -82 l6 -48 -200 0 -200 0 -28 53 c-22 41 -33 52 -53 52
-21 0 -28 -8 -45 -57 l-21 -58 -47 158 c-26 86 -58 204 -72 261 -15 57 -30
112 -36 123 -12 22 -32 23 -49 3z m1042 -522 c38 -34 11 -103 -42 -103 -40 0
-63 22 -63 60 0 54 63 81 105 43z"/>
<path d="M727 2132 c-36 -37 -37 -39 -19 -55 17 -16 20 -14 54 27 28 32 34 46
25 55 -16 16 -19 15 -60 -27z"/>
<path d="M1860 2090 c0 -16 16 -58 35 -92 l35 -63 0 48 c0 38 -7 58 -30 93
-17 24 -33 44 -35 44 -3 0 -5 -13 -5 -30z"/>
<path d="M640 2013 c-15 -26 -19 -42 -13 -52 17 -26 28 -22 50 21 18 31 20 44
12 54 -17 21 -25 17 -49 -23z"/>
<path d="M586 1899 c-26 -65 -27 -75 -7 -93 18 -17 19 -15 36 39 17 52 17 57
2 72 -15 16 -18 14 -31 -18z"/>
<path d="M546 1749 c-3 -17 -6 -44 -6 -60 0 -28 -2 -29 -49 -29 -39 0 -51 4
-55 18 -19 58 -113 90 -174 58 -80 -41 -81 -170 -1 -211 62 -33 156 -2 175 57
4 14 16 18 55 18 46 0 49 -2 49 -25 0 -55 33 -183 66 -254 61 -132 164 -251
281 -324 52 -33 53 -33 53 -4 0 17 -13 32 -49 56 -82 53 -187 173 -230 265
-38 79 -67 176 -73 246 l-3 35 131 3 c128 2 131 3 144 27 16 31 23 23 49 -60
11 -33 35 -102 54 -153 l34 -93 16 41 16 42 -58 181 c-53 169 -59 182 -81 182
-19 0 -31 -12 -54 -52 l-30 -53 -114 0 -113 0 6 43 c5 35 3 46 -13 60 -19 17
-20 17 -26 -14z m-190 -67 c24 -16 35 -51 23 -74 -15 -29 -28 -38 -58 -38 -53
0 -80 62 -44 102 16 18 59 24 79 10z"/>
<path d="M1633 1013 c-13 -9 -23 -26 -23 -39 0 -24 1 -24 30 -9 21 11 30 23
30 40 0 29 -6 30 -37 8z"/>
<path d="M980 966 c0 -14 7 -26 18 -29 9 -2 25 -8 35 -12 13 -6 17 -2 17 18 0
19 -7 28 -31 36 -41 14 -39 15 -39 -13z"/>
<path d="M1528 967 c-19 -7 -28 -18 -28 -34 0 -27 -2 -26 39 -12 23 8 31 17
31 35 0 26 -2 27 -42 11z"/>
<path d="M1082 928 c2 -16 12 -24 36 -29 29 -6 32 -4 32 16 0 15 -8 25 -22 29
-40 10 -50 7 -46 -16z"/>
<path d="M1407 933 c-13 -12 -7 -43 7 -43 28 0 46 12 46 31 0 13 -7 19 -23 19
-13 0 -27 -3 -30 -7z"/>
<path d="M1190 905 c0 -21 5 -25 30 -25 25 0 30 4 30 25 0 21 -5 25 -30 25
-25 0 -30 -4 -30 -25z"/>
<path d="M1308 923 c-10 -2 -18 -13 -18 -24 0 -15 7 -19 35 -19 31 0 35 3 35
25 0 25 -11 29 -52 18z"/>
<path d="M420 695 c0 -25 1 -25 85 -25 47 0 85 -2 85 -5 0 -3 -38 -63 -85
-133 -47 -70 -85 -137 -85 -149 0 -23 2 -23 115 -23 l115 0 0 25 c0 25 -1 25
-85 25 l-85 0 80 120 c44 66 84 130 89 143 16 43 6 47 -115 47 l-114 0 0 -25z"/>
<path d="M795 553 c-32 -93 -60 -174 -63 -180 -3 -9 6 -13 24 -13 28 0 31 4
67 113 63 184 53 181 106 27 44 -129 47 -135 75 -138 21 -3 27 0 24 10 -3 7
-31 88 -63 181 -55 160 -59 167 -84 167 -26 0 -30 -7 -86 -167z"/>
<path d="M1110 540 l0 -180 30 0 30 0 0 180 0 180 -30 0 -30 0 0 -180z"/>
<path d="M1240 700 c0 -18 7 -20 55 -20 l55 0 0 -160 0 -160 30 0 30 0 0 160
0 160 50 0 c43 0 50 3 50 20 0 19 -7 20 -135 20 -128 0 -135 -1 -135 -20z"/>
<path d="M1590 540 l0 -180 25 0 25 0 0 180 0 180 -25 0 -25 0 0 -180z"/>
<path d="M1670 700 c0 -18 7 -20 70 -20 63 0 70 2 70 20 0 18 -7 20 -70 20
-63 0 -70 -2 -70 -20z"/>
<path d="M1890 540 l0 -180 30 0 30 0 0 180 0 180 -30 0 -30 0 0 -180z"/>
<path d="M1970 700 c0 -14 7 -20 24 -20 39 0 70 -32 70 -73 0 -45 -27 -77 -66
-77 -21 0 -28 -5 -28 -20 0 -13 7 -20 20 -20 15 0 29 -17 52 -65 28 -57 36
-65 61 -65 l28 0 -38 69 -38 70 30 31 c37 39 42 105 10 140 -41 46 -125 66
-125 30z"/>
<path d="M1670 540 c0 -18 7 -20 60 -20 53 0 60 2 60 20 0 18 -7 20 -60 20
-53 0 -60 -2 -60 -20z"/>
<path d="M846 465 c-9 -25 -9 -25 35 -25 33 0 40 3 37 18 -4 24 -63 29 -72 7z"/>
<path d="M1670 380 c0 -18 7 -20 70 -20 63 0 70 2 70 20 0 18 -7 20 -70 20
-63 0 -70 -2 -70 -20z"/>
</g>
</svg>
